<svg width="20" height="20" viewBox="0 0 20 20" fill="none" xmlns="http://www.w3.org/2000/svg">
<path d="M8.74996 1.66669C4.84534 1.66669 1.66663 4.84541 1.66663 8.75002C1.66663 12.4049 4.45239 15.4231 8.01103 15.7943C9.01645 17.3221 10.7466 18.3334 12.7083 18.3334C15.8074 18.3334 18.3333 15.8074 18.3333 12.7084C18.3333 10.7466 17.322 9.01651 15.7942 8.01109C15.4231 4.45245 12.4049 1.66669 8.74996 1.66669ZM8.74996 2.91669C11.8256 2.91669 14.329 5.28108 14.5605 8.29592C14.5527 8.36355 14.556 8.43199 14.5703 8.49856C14.5738 8.58262 14.5833 8.66505 14.5833 8.75002C14.5833 11.9791 11.979 14.5834 8.74996 14.5834C8.64245 14.5834 8.53782 14.5728 8.43176 14.5671C8.41417 14.5655 8.39652 14.5647 8.37887 14.5646C5.32468 14.3731 2.91663 11.8537 2.91663 8.75002C2.91663 5.52096 5.52089 2.91669 8.74996 2.91669ZM15.778 9.59556C16.5833 10.387 17.0833 11.4861 17.0833 12.7084C17.0833 15.1318 15.1317 17.0834 12.7083 17.0834C11.486 17.0834 10.3869 16.5834 9.5955 15.778C12.8245 15.3911 15.391 12.8246 15.778 9.59556Z" fill="white" fill-opacity="0.5"/>
</svg>
